<svg xmlns="http://www.w3.org/2000/svg" viewBox="0 0 1200 320" width="1200" height="320" role="img" aria-label="Ruijie - AI Algorithm Engineer">
  <title>Ruijie - AI Algorithm Engineer</title>
  <desc>Pixel-art banner with animated character and tech stack</desc>

  <rect width="1200" height="320" fill="#FFFFFF"/>

  <g opacity="0.3">
    <line x1="0" y1="60"   x2="1200" y2="60"   stroke="#E5E5E5" stroke-width="1"/>
    <line x1="0" y1="120"  x2="1200" y2="120"  stroke="#E5E5E5" stroke-width="1"/>
    <line x1="0" y1="180"  x2="1200" y2="180"  stroke="#E5E5E5" stroke-width="1"/>
    <line x1="0" y1="240"  x2="1200" y2="240"  stroke="#E5E5E5" stroke-width="1"/>
    <line x1="120"  y1="0" x2="120"  y2="320" stroke="#E5E5E5" stroke-width="1"/>
    <line x1="240"  y1="0" x2="240"  y2="320" stroke="#E5E5E5" stroke-width="1"/>
    <line x1="360"  y1="0" x2="360"  y2="320" stroke="#E5E5E5" stroke-width="1"/>
    <line x1="480"  y1="0" x2="480"  y2="320" stroke="#E5E5E5" stroke-width="1"/>
    <line x1="600"  y1="0" x2="600"  y2="320" stroke="#E5E5E5" stroke-width="1"/>
    <line x1="720"  y1="0" x2="720"  y2="320" stroke="#E5E5E5" stroke-width="1"/>
    <line x1="840"  y1="0" x2="840"  y2="320" stroke="#E5E5E5" stroke-width="1"/>
    <line x1="960"  y1="0" x2="960"  y2="320" stroke="#E5E5E5" stroke-width="1"/>
    <line x1="1080" y1="0" x2="1080" y2="320" stroke="#E5E5E5" stroke-width="1"/>
  </g>

  <g transform="translate(75, 65)">
    <rect x="0" y="0" width="190" height="190" fill="none" stroke="#1A1A1A" stroke-width="2" stroke-dasharray="4,4"/>
    <text x="6" y="-6" font-family="'Courier New', monospace" font-size="10" fill="#888" letter-spacing="2">CHAR.PNG</text>

    <g transform="translate(30, 25)">
      <animateTransform attributeName="transform" type="translate" values="30,25; 30,26; 30,25" dur="3s" repeatCount="indefinite"/>

      <rect x="25" y="0"  width="80" height="10" fill="#1A1A1A"/>
      <rect x="15" y="10" width="100" height="10" fill="#1A1A1A"/>
      <rect x="10" y="20" width="110" height="10" fill="#1A1A1A"/>

      <rect x="15" y="30" width="100" height="10" fill="#F4C9A8"/>
      <rect x="10" y="30" width="5"   height="10" fill="#1A1A1A"/>
      <rect x="115" y="30" width="5"  height="10" fill="#1A1A1A"/>
      <rect x="10" y="30" width="110" height="5"  fill="#1A1A1A"/>

      <rect x="10" y="40" width="110" height="30" fill="#F4C9A8"/>
      <rect x="10" y="40" width="5"   height="30" fill="#1A1A1A"/>
      <rect x="115" y="40" width="5"  height="30" fill="#1A1A1A"/>

      <rect x="30"  y="48" width="15" height="10" fill="#1A1A1A"/>
      <rect x="85"  y="48" width="15" height="10" fill="#1A1A1A"/>
      <rect x="35"  y="50" width="5"  height="5"  fill="#FFFFFF">
        <animate attributeName="opacity" values="1;1;1;1;1;1;1;1;1;0;1" dur="4s" repeatCount="indefinite"/>
      </rect>
      <rect x="90"  y="50" width="5"  height="5"  fill="#FFFFFF">
        <animate attributeName="opacity" values="1;1;1;1;1;1;1;1;1;0;1" dur="4s" repeatCount="indefinite"/>
      </rect>

      <rect x="55" y="58" width="20" height="6"  fill="#E89B7D"/>
      <rect x="50" y="72" width="30" height="4"  fill="#1A1A1A"/>
      <rect x="10" y="76" width="5"   height="5"  fill="#1A1A1A"/>
      <rect x="115" y="76" width="5"  height="5"  fill="#1A1A1A"/>

      <rect x="0"  y="80" width="130" height="15" fill="#1A1A1A"/>
      <rect x="0"  y="95" width="130" height="45" fill="#FF6B35"/>
      <rect x="0"  y="95" width="10"  height="45" fill="#D04A18"/>
      <rect x="120" y="95" width="10" height="45" fill="#D04A18"/>

      <rect x="55" y="105" width="20" height="15" fill="#FFFFFF"/>
      <rect x="60" y="110" width="10" height="5"  fill="#1A1A1A"/>

      <rect x="40" y="130" width="50" height="10" fill="#FFFFFF"/>
    </g>
  </g>

  <g transform="translate(320, 90)">
    <text x="0" y="0" font-family="'Courier New', monospace" font-size="13" fill="#888888" letter-spacing="3">&gt; HELLO_WORLD.RUN</text>

    <text x="0" y="60" font-family="'Courier New', monospace" font-size="54" font-weight="700" fill="#1A1A1A">RUIJIE</text>
    <rect x="240" y="25" width="10" height="40" fill="#FF6B35">
      <animate attributeName="opacity" values="1;1;0;0;1" dur="1.2s" repeatCount="indefinite"/>
    </rect>

    <text x="0" y="105" font-family="'Courier New', monospace" font-size="18" fill="#555555">AI Algorithm Engineer</text>

    <g transform="translate(0, 135)">
      <rect x="0" y="0" width="10" height="10" fill="#FF6B35"/>
      <text x="22" y="10" font-family="'Courier New', monospace" font-size="13" fill="#1A1A1A">Shenzhen, China</text>

      <rect x="180" y="0" width="10" height="10" fill="#7FB069">
        <animate attributeName="opacity" values="1;0.3;1" dur="2s" repeatCount="indefinite"/>
      </rect>
      <text x="202" y="10" font-family="'Courier New', monospace" font-size="13" fill="#1A1A1A">Focusing</text>

      <rect x="310" y="0" width="10" height="10" fill="#3776AB"/>
      <text x="332" y="10" font-family="'Courier New', monospace" font-size="13" fill="#1A1A1A">Open to collaborate</text>
    </g>

    <g transform="translate(0, 170)">
      <rect x="0"   y="0" width="70" height="24" fill="#FFFFFF" stroke="#1A1A1A" stroke-width="2"/>
      <text x="35" y="16" font-family="'Courier New', monospace" font-size="11" fill="#1A1A1A" text-anchor="middle">Python</text>

      <rect x="80"  y="0" width="80" height="24" fill="#FFFFFF" stroke="#1A1A1A" stroke-width="2"/>
      <text x="120" y="16" font-family="'Courier New', monospace" font-size="11" fill="#1A1A1A" text-anchor="middle">PyTorch</text>

      <rect x="170" y="0" width="60" height="24" fill="#FFFFFF" stroke="#1A1A1A" stroke-width="2"/>
      <text x="200" y="16" font-family="'Courier New', monospace" font-size="11" fill="#1A1A1A" text-anchor="middle">CUDA</text>

      <rect x="240" y="0" width="90" height="24" fill="#FFFFFF" stroke="#1A1A1A" stroke-width="2"/>
      <text x="285" y="16" font-family="'Courier New', monospace" font-size="11" fill="#1A1A1A" text-anchor="middle">TensorRT</text>

      <rect x="340" y="0" width="60" height="24" fill="#FFFFFF" stroke="#1A1A1A" stroke-width="2"/>
      <text x="370" y="16" font-family="'Courier New', monospace" font-size="11" fill="#1A1A1A" text-anchor="middle">C++</text>
    </g>
  </g>

  <g transform="translate(990, 80)">
    <rect x="0"   y="0"   width="20" height="20" fill="#FF6B35">
      <animate attributeName="opacity" values="1;0.4;1" dur="2.4s" repeatCount="indefinite"/>
    </rect>
    <rect x="25"  y="0"   width="20" height="20" fill="#FFFFFF" stroke="#1A1A1A" stroke-width="2"/>
    <rect x="50"  y="0"   width="20" height="20" fill="#1A1A1A"/>
    <rect x="75"  y="0"   width="20" height="20" fill="#FFFFFF" stroke="#1A1A1A" stroke-width="2"/>

    <rect x="0"   y="25"  width="20" height="20" fill="#FFFFFF" stroke="#1A1A1A" stroke-width="2"/>
    <rect x="25"  y="25"  width="20" height="20" fill="#7FB069">
      <animate attributeName="opacity" values="1;0.4;1" dur="2.8s" repeatCount="indefinite"/>
    </rect>
    <rect x="50"  y="25"  width="20" height="20" fill="#FFFFFF" stroke="#1A1A1A" stroke-width="2"/>
    <rect x="75"  y="25"  width="20" height="20" fill="#1A1A1A"/>

    <rect x="0"   y="50"  width="20" height="20" fill="#1A1A1A"/>
    <rect x="25"  y="50"  width="20" height="20" fill="#FFFFFF" stroke="#1A1A1A" stroke-width="2"/>
    <rect x="50"  y="50"  width="20" height="20" fill="#3776AB">
      <animate attributeName="opacity" values="1;0.4;1" dur="3.2s" repeatCount="indefinite"/>
    </rect>
    <rect x="75"  y="50"  width="20" height="20" fill="#FFFFFF" stroke="#1A1A1A" stroke-width="2"/>

    <rect x="0"   y="75"  width="20" height="20" fill="#FFFFFF" stroke="#1A1A1A" stroke-width="2"/>
    <rect x="25"  y="75"  width="20" height="20" fill="#1A1A1A"/>
    <rect x="50"  y="75"  width="20" height="20" fill="#FFFFFF" stroke="#1A1A1A" stroke-width="2"/>
    <rect x="75"  y="75"  width="20" height="20" fill="#FF6B35">
      <animate attributeName="opacity" values="1;0.4;1" dur="2.6s" repeatCount="indefinite"/>
    </rect>

    <rect x="0"   y="100" width="20" height="20" fill="#7FB069">
      <animate attributeName="opacity" values="1;0.4;1" dur="3s" repeatCount="indefinite"/>
    </rect>
    <rect x="25"  y="100" width="20" height="20" fill="#FFFFFF" stroke="#1A1A1A" stroke-width="2"/>
    <rect x="50"  y="100" width="20" height="20" fill="#1A1A1A"/>
    <rect x="75"  y="100" width="20" height="20" fill="#FFFFFF" stroke="#1A1A1A" stroke-width="2"/>

    <rect x="0"   y="125" width="20" height="20" fill="#FFFFFF" stroke="#1A1A1A" stroke-width="2"/>
    <rect x="25"  y="125" width="20" height="20" fill="#FF6B35">
      <animate attributeName="opacity" values="1;0.4;1" dur="2.2s" repeatCount="indefinite"/>
    </rect>
    <rect x="50"  y="125" width="20" height="20" fill="#FFFFFF" stroke="#1A1A1A" stroke-width="2"/>
    <rect x="75"  y="125" width="20" height="20" fill="#1A1A1A"/>
  </g>

  <rect x="0" y="0"   width="1200" height="4" fill="#1A1A1A"/>
  <rect x="0" y="316" width="1200" height="4" fill="#1A1A1A"/>
</svg>
