<svg xmlns="http://www.w3.org/2000/svg" viewBox="0 0 900 540" width="900" height="540" role="img" aria-label="Character stats - GitHub RPG character sheet">
  <title>Character Stats</title>
  <desc>RPG-style character sheet with real GitHub data</desc>

  <rect width="900" height="540" fill="#FFFFFF"/>

  <rect x="2" y="2" width="896" height="536" fill="none" stroke="#1A1A1A" stroke-width="4"/>
  <rect x="10" y="10" width="880" height="520" fill="none" stroke="#1A1A1A" stroke-width="1" stroke-dasharray="3,3"/>

  <g transform="translate(24, 20)">
    <rect x="0" y="0" width="170" height="20" fill="#1A1A1A"/>
    <text x="8" y="14" font-family="'Courier New', monospace" font-size="12" fill="#FFFFFF" letter-spacing="2">[ CHARACTER.DAT ]</text>
  </g>

  <g transform="translate(700, 22)" font-family="'Courier New', monospace">
    <rect x="0" y="0" width="10" height="10" fill="#7FB069">
      <animate attributeName="opacity" values="1;0.3;1" dur="1.5s" repeatCount="indefinite"/>
    </rect>
    <text x="18" y="10" font-size="11" fill="#1A1A1A">ONLINE</text>
    <text x="90" y="10" font-size="11" fill="#888888">v1.0.0</text>
  </g>

  <g transform="translate(40, 60)" font-family="'Courier New', monospace">
    <rect x="0" y="0" width="200" height="240" fill="none" stroke="#1A1A1A" stroke-width="2"/>
    <rect x="0" y="0" width="200" height="20" fill="#1A1A1A"/>
    <text x="8" y="14" font-size="11" fill="#FFFFFF" letter-spacing="2">PORTRAIT</text>

    <g transform="translate(30, 40)">
      <animateTransform attributeName="transform" type="translate" values="30,40; 30,41; 30,40" dur="3s" repeatCount="indefinite"/>
      <rect x="25" y="0"  width="80" height="10" fill="#1A1A1A"/>
      <rect x="15" y="10" width="100" height="10" fill="#1A1A1A"/>
      <rect x="10" y="20" width="110" height="10" fill="#1A1A1A"/>
      <rect x="15" y="30" width="100" height="10" fill="#F4C9A8"/>
      <rect x="10" y="30" width="5" height="10" fill="#1A1A1A"/>
      <rect x="115" y="30" width="5" height="10" fill="#1A1A1A"/>
      <rect x="10" y="30" width="110" height="5" fill="#1A1A1A"/>
      <rect x="10" y="40" width="110" height="30" fill="#F4C9A8"/>
      <rect x="10" y="40" width="5" height="30" fill="#1A1A1A"/>
      <rect x="115" y="40" width="5" height="30" fill="#1A1A1A"/>
      <rect x="30" y="48" width="15" height="10" fill="#1A1A1A"/>
      <rect x="85" y="48" width="15" height="10" fill="#1A1A1A"/>
      <rect x="35" y="50" width="5" height="5" fill="#FFFFFF">
        <animate attributeName="opacity" values="1;1;1;0;1" dur="4s" repeatCount="indefinite"/>
      </rect>
      <rect x="90" y="50" width="5" height="5" fill="#FFFFFF">
        <animate attributeName="opacity" values="1;1;1;0;1" dur="4s" repeatCount="indefinite"/>
      </rect>
      <rect x="55" y="58" width="20" height="6" fill="#E89B7D"/>
      <rect x="50" y="72" width="30" height="4" fill="#1A1A1A"/>
      <rect x="10" y="76" width="5" height="5" fill="#1A1A1A"/>
      <rect x="115" y="76" width="5" height="5" fill="#1A1A1A"/>
      <rect x="0" y="80" width="130" height="15" fill="#1A1A1A"/>
      <rect x="0" y="95" width="130" height="45" fill="#FF6B35"/>
      <rect x="0" y="95" width="10" height="45" fill="#D04A18"/>
      <rect x="120" y="95" width="10" height="45" fill="#D04A18"/>
      <rect x="55" y="105" width="20" height="15" fill="#FFFFFF"/>
      <rect x="60" y="110" width="10" height="5" fill="#1A1A1A"/>
      <rect x="40" y="130" width="50" height="10" fill="#FFFFFF"/>
    </g>

    <text x="100" y="215" font-size="14" fill="#1A1A1A" text-anchor="middle" font-weight="700">RUIJIE</text>
    <text x="100" y="230" font-size="10" fill="#888888" text-anchor="middle">AI.Engineer / Shenzhen</text>
  </g>

  <g transform="translate(260, 60)" font-family="'Courier New', monospace">
    <rect x="0" y="0" width="160" height="50" fill="#FFF3EB" stroke="#FF6B35" stroke-width="2"/>
    <text x="10" y="18" font-size="10" fill="#888888" letter-spacing="1">LEVEL</text>
    <text x="10" y="42" font-size="28" fill="#FF6B35" font-weight="700">LV.8</text>
    <text x="75" y="42" font-size="11" fill="#1A1A1A">↑ EXP 340/500</text>

    <rect x="60" y="28" width="95" height="6" fill="#FFFFFF" stroke="#1A1A1A" stroke-width="1"/>
    <rect x="61" y="29" width="0" height="4" fill="#FF6B35">
      <animate attributeName="width" values="0;65;65" dur="2s" repeatCount="indefinite"/>
    </rect>
  </g>

  <g transform="translate(440, 60)" font-family="'Courier New', monospace">
    <text x="0" y="12" font-size="10" fill="#888888">HP</text>
    <rect x="22" y="2" width="200" height="14" fill="#FFFFFF" stroke="#1A1A1A" stroke-width="2"/>
    <rect x="24" y="4" width="0" height="10" fill="#E24B4A">
      <animate attributeName="width" values="0;196;196" dur="1.8s" repeatCount="indefinite"/>
    </rect>
    <text x="228" y="12" font-size="10" fill="#1A1A1A">98/100</text>

    <text x="0" y="32" font-size="10" fill="#888888">MP</text>
    <rect x="22" y="22" width="200" height="14" fill="#FFFFFF" stroke="#1A1A1A" stroke-width="2"/>
    <rect x="24" y="24" width="0" height="10" fill="#3776AB">
      <animate attributeName="width" values="0;140;140" dur="2.2s" repeatCount="indefinite"/>
    </rect>
    <text x="228" y="32" font-size="10" fill="#1A1A1A">70/100</text>

    <text x="0" y="52" font-size="10" fill="#888888">STK</text>
    <rect x="22" y="42" width="200" height="14" fill="#FFFFFF" stroke="#1A1A1A" stroke-width="2"/>
    <rect x="24" y="44" width="0" height="10" fill="#FFB800">
      <animate attributeName="width" values="0;72;72" dur="2.6s" repeatCount="indefinite"/>
    </rect>
    <text x="228" y="52" font-size="10" fill="#1A1A1A">36 ★</text>
  </g>

  <g transform="translate(260, 150)" font-family="'Courier New', monospace">
    <rect x="0" y="0" width="80" height="60" fill="none" stroke="#1A1A1A" stroke-width="2"/>
    <text x="40" y="14" font-size="9" fill="#888888" text-anchor="middle">REPOS</text>
    <text x="40" y="42" font-size="24" fill="#1A1A1A" text-anchor="middle" font-weight="700">6</text>
    <rect x="8" y="48" width="64" height="4" fill="#1A1A1A"/>

    <rect x="90" y="0" width="80" height="60" fill="none" stroke="#1A1A1A" stroke-width="2"/>
    <text x="130" y="14" font-size="9" fill="#888888" text-anchor="middle">STARS</text>
    <text x="130" y="42" font-size="24" fill="#FF6B35" text-anchor="middle" font-weight="700">36</text>
    <rect x="98" y="48" width="64" height="4" fill="#FF6B35"/>

    <rect x="180" y="0" width="80" height="60" fill="none" stroke="#1A1A1A" stroke-width="2"/>
    <text x="220" y="14" font-size="9" fill="#888888" text-anchor="middle">FOLLOW</text>
    <text x="220" y="42" font-size="24" fill="#1A1A1A" text-anchor="middle" font-weight="700">5</text>
    <rect x="188" y="48" width="64" height="4" fill="#1A1A1A"/>

    <rect x="270" y="0" width="80" height="60" fill="none" stroke="#1A1A1A" stroke-width="2"/>
    <text x="310" y="14" font-size="9" fill="#888888" text-anchor="middle">COMMIT</text>
    <text x="310" y="42" font-size="24" fill="#7FB069" text-anchor="middle" font-weight="700">200+</text>
    <rect x="278" y="48" width="64" height="4" fill="#7FB069"/>

    <rect x="360" y="0" width="80" height="60" fill="none" stroke="#1A1A1A" stroke-width="2"/>
    <text x="400" y="14" font-size="9" fill="#888888" text-anchor="middle">YEARS</text>
    <text x="400" y="42" font-size="24" fill="#3776AB" text-anchor="middle" font-weight="700">4</text>
    <rect x="368" y="48" width="64" height="4" fill="#3776AB"/>
  </g>

  <g transform="translate(40, 330)" font-family="'Courier New', monospace">
    <rect x="0" y="0" width="400" height="190" fill="none" stroke="#1A1A1A" stroke-width="2"/>
    <rect x="0" y="0" width="400" height="20" fill="#1A1A1A"/>
    <text x="8" y="14" font-size="11" fill="#FFFFFF" letter-spacing="2">SKILL_TREE.DAT</text>

    <g transform="translate(16, 36)">
      <text x="0" y="10" font-size="11" fill="#1A1A1A">Python</text>
      <text x="360" y="10" font-size="10" fill="#888888" text-anchor="end">LV.9</text>
      <rect x="0" y="14" width="368" height="10" fill="#FFFFFF" stroke="#1A1A1A" stroke-width="1.5"/>
      <rect x="2" y="16" width="0" height="6" fill="#3776AB">
        <animate attributeName="width" values="0;330;330" dur="2s" repeatCount="indefinite"/>
      </rect>
    </g>

    <g transform="translate(16, 70)">
      <text x="0" y="10" font-size="11" fill="#1A1A1A">PyTorch / DL</text>
      <text x="360" y="10" font-size="10" fill="#888888" text-anchor="end">LV.8</text>
      <rect x="0" y="14" width="368" height="10" fill="#FFFFFF" stroke="#1A1A1A" stroke-width="1.5"/>
      <rect x="2" y="16" width="0" height="6" fill="#EE4C2C">
        <animate attributeName="width" values="0;294;294" dur="2.2s" repeatCount="indefinite"/>
      </rect>
    </g>

    <g transform="translate(16, 104)">
      <text x="0" y="10" font-size="11" fill="#1A1A1A">CUDA / TensorRT</text>
      <text x="360" y="10" font-size="10" fill="#888888" text-anchor="end">LV.7</text>
      <rect x="0" y="14" width="368" height="10" fill="#FFFFFF" stroke="#1A1A1A" stroke-width="1.5"/>
      <rect x="2" y="16" width="0" height="6" fill="#76B900">
        <animate attributeName="width" values="0;258;258" dur="2.4s" repeatCount="indefinite"/>
      </rect>
    </g>

    <g transform="translate(16, 138)">
      <text x="0" y="10" font-size="11" fill="#1A1A1A">C++</text>
      <text x="360" y="10" font-size="10" fill="#888888" text-anchor="end">LV.6</text>
      <rect x="0" y="14" width="368" height="10" fill="#FFFFFF" stroke="#1A1A1A" stroke-width="1.5"/>
      <rect x="2" y="16" width="0" height="6" fill="#00599C">
        <animate attributeName="width" values="0;220;220" dur="2.6s" repeatCount="indefinite"/>
      </rect>
    </g>

    <g transform="translate(16, 168)">
      <text x="0" y="8" font-size="11" fill="#1A1A1A">Linux / Docker</text>
      <text x="360" y="8" font-size="10" fill="#888888" text-anchor="end">LV.7</text>
    </g>
  </g>

  <g transform="translate(460, 330)" font-family="'Courier New', monospace">
    <rect x="0" y="0" width="400" height="190" fill="none" stroke="#1A1A1A" stroke-width="2"/>
    <rect x="0" y="0" width="400" height="20" fill="#1A1A1A"/>
    <text x="8" y="14" font-size="11" fill="#FFFFFF" letter-spacing="2">INVENTORY &amp; ACHIEVEMENTS</text>

    <g transform="translate(20, 40)">
      <rect x="0" y="0" width="50" height="50" fill="#FFF3EB" stroke="#1A1A1A" stroke-width="1.5"/>
      <g transform="translate(13, 13)">
        <animate attributeName="opacity" values="1;0.6;1" dur="2s" repeatCount="indefinite"/>
        <rect x="9" y="0" width="6" height="3" fill="#FFB800"/>
        <rect x="6" y="3" width="12" height="3" fill="#FFB800"/>
        <rect x="3" y="6" width="18" height="3" fill="#FFB800"/>
        <rect x="0" y="9" width="24" height="3" fill="#FFB800"/>
        <rect x="3" y="12" width="18" height="3" fill="#FFB800"/>
        <rect x="6" y="15" width="3" height="3" fill="#FFB800"/>
        <rect x="15" y="15" width="3" height="3" fill="#FFB800"/>
        <rect x="3" y="18" width="3" height="3" fill="#FFB800"/>
        <rect x="18" y="18" width="3" height="3" fill="#FFB800"/>
      </g>
      <text x="25" y="64" font-size="8" fill="#1A1A1A" text-anchor="middle">STARSTRUCK</text>

      <rect x="60" y="0" width="50" height="50" fill="#E6F1FB" stroke="#1A1A1A" stroke-width="1.5"/>
      <g transform="translate(73, 13)">
        <rect x="3" y="0" width="18" height="3" fill="#3776AB"/>
        <rect x="0" y="3" width="24" height="3" fill="#3776AB"/>
        <rect x="0" y="6" width="24" height="3" fill="#3776AB"/>
        <rect x="0" y="9" width="3" height="6" fill="#3776AB"/>
        <rect x="21" y="9" width="3" height="6" fill="#3776AB"/>
        <rect x="0" y="15" width="24" height="3" fill="#3776AB"/>
        <rect x="3" y="18" width="18" height="3" fill="#3776AB"/>
      </g>
      <text x="85" y="64" font-size="8" fill="#1A1A1A" text-anchor="middle">DEEPSTREAM</text>

      <rect x="120" y="0" width="50" height="50" fill="#EAF3DE" stroke="#1A1A1A" stroke-width="1.5"/>
      <g transform="translate(133, 13)">
        <rect x="9" y="0" width="6" height="24" fill="#7FB069"/>
        <rect x="0" y="9" width="24" height="6" fill="#7FB069"/>
      </g>
      <text x="145" y="64" font-size="8" fill="#1A1A1A" text-anchor="middle">CONTENT</text>

      <rect x="180" y="0" width="50" height="50" fill="#FAEEDA" stroke="#1A1A1A" stroke-width="1.5"/>
      <g transform="translate(193, 13)">
        <rect x="0" y="0" width="24" height="3" fill="#BA7517"/>
        <rect x="0" y="0" width="3" height="24" fill="#BA7517"/>
        <rect x="21" y="0" width="3" height="24" fill="#BA7517"/>
        <rect x="0" y="21" width="24" height="3" fill="#BA7517"/>
        <rect x="9" y="9" width="6" height="6" fill="#BA7517"/>
      </g>
      <text x="205" y="64" font-size="8" fill="#1A1A1A" text-anchor="middle">SHENZHEN</text>

      <rect x="240" y="0" width="50" height="50" fill="#FAFAFA" stroke="#1A1A1A" stroke-width="1.5" stroke-dasharray="3,3"/>
      <text x="265" y="30" font-size="20" fill="#CCC" text-anchor="middle">?</text>
      <text x="265" y="64" font-size="8" fill="#AAA" text-anchor="middle">LOCKED</text>

      <rect x="300" y="0" width="50" height="50" fill="#FAFAFA" stroke="#1A1A1A" stroke-width="1.5" stroke-dasharray="3,3"/>
      <text x="325" y="30" font-size="20" fill="#CCC" text-anchor="middle">?</text>
      <text x="325" y="64" font-size="8" fill="#AAA" text-anchor="middle">LOCKED</text>
    </g>

    <g transform="translate(20, 130)">
      <text x="0" y="0" font-size="10" fill="#888888" letter-spacing="1">TITLE</text>
      <text x="0" y="18" font-size="13" fill="#1A1A1A" font-weight="700">&lt; Pixel Crafter &gt;</text>
    </g>

    <g transform="translate(200, 130)">
      <text x="0" y="0" font-size="10" fill="#888888" letter-spacing="1">GUILD</text>
      <text x="0" y="18" font-size="13" fill="#1A1A1A" font-weight="700">Computer Vision</text>
    </g>

    <g transform="translate(20, 165)">
      <text x="0" y="0" font-size="10" fill="#888888">QUEST:</text>
      <text x="44" y="0" font-size="10" fill="#1A1A1A">deploy real-time inference at scale</text>
      <rect x="280" y="-8" width="8" height="10" fill="#FF6B35">
        <animate attributeName="opacity" values="1;0;1" dur="0.8s" repeatCount="indefinite"/>
      </rect>
    </g>
  </g>

</svg>
