<svg xmlns="http://www.w3.org/2000/svg" viewBox="0 0 900 220" width="900" height="220" role="img" aria-label="Connect - social links">
  <title>Connect</title>
  <desc>Pixel-art social link cards</desc>

  <rect width="900" height="220" fill="#FFFFFF"/>

  <g transform="translate(20, 20)">
    <rect x="0" y="0" width="170" height="24" fill="#1A1A1A"/>
    <text x="12" y="17" font-family="'Courier New', monospace" font-size="12" fill="#FFFFFF" letter-spacing="2">[ CONNECT.SH ]</text>
    <text x="190" y="17" font-family="'Courier New', monospace" font-size="11" fill="#888" letter-spacing="1">// 05 · find me here</text>
  </g>

  <g transform="translate(40, 70)" font-family="'Courier New', monospace">
    <rect x="4" y="4" width="180" height="110" fill="#1A1A1A"/>
    <rect x="0" y="0" width="180" height="110" fill="#FFFFFF" stroke="#1A1A1A" stroke-width="2"/>

    <g transform="translate(60, 18)">
      <rect x="9"  y="0"   width="42" height="6"  fill="#1A1A1A"/>
      <rect x="3"  y="6"   width="54" height="6"  fill="#1A1A1A"/>
      <rect x="0"  y="12"  width="60" height="24" fill="#1A1A1A"/>
      <rect x="12" y="18"  width="6"  height="6"  fill="#FFFFFF"/>
      <rect x="42" y="18"  width="6"  height="6"  fill="#FFFFFF"/>
      <rect x="15" y="24"  width="3"  height="6"  fill="#1A1A1A"/>
      <rect x="42" y="24"  width="3"  height="6"  fill="#1A1A1A"/>
      <rect x="24" y="30"  width="12" height="3"  fill="#FFFFFF"/>
      <rect x="0"  y="36"  width="6"  height="12" fill="#1A1A1A"/>
      <rect x="54" y="36"  width="6"  height="12" fill="#1A1A1A"/>
      <rect x="6"  y="36"  width="48" height="6"  fill="#1A1A1A"/>
    </g>

    <text x="90" y="88" font-size="11" fill="#1A1A1A" text-anchor="middle" font-weight="700">GITHUB</text>
    <text x="90" y="102" font-size="9" fill="#888" text-anchor="middle">@RuijieSpace</text>
  </g>

  <g transform="translate(240, 70)" font-family="'Courier New', monospace">
    <rect x="4" y="4" width="180" height="110" fill="#1A1A1A"/>
    <rect x="0" y="0" width="180" height="110" fill="#FFFFFF" stroke="#1A1A1A" stroke-width="2"/>

    <g transform="translate(65, 24)">
      <rect x="0"  y="9"  width="6"  height="24" fill="#C32136"/>
      <rect x="6"  y="3"  width="6"  height="6"  fill="#C32136"/>
      <rect x="12" y="0"  width="36" height="6"  fill="#C32136"/>
      <rect x="48" y="3"  width="6"  height="6"  fill="#C32136"/>
      <rect x="6"  y="33" width="6"  height="6"  fill="#C32136"/>
      <rect x="12" y="36" width="36" height="6"  fill="#C32136"/>
      <rect x="48" y="33" width="6"  height="6"  fill="#C32136"/>
      <rect x="54" y="9"  width="6"  height="24" fill="#C32136"/>
      <rect x="18" y="15" width="18" height="3"  fill="#FFFFFF"/>
      <rect x="18" y="18" width="3"  height="6"  fill="#FFFFFF"/>
      <rect x="18" y="24" width="18" height="3"  fill="#FFFFFF"/>
      <rect x="33" y="24" width="3"  height="3"  fill="#FFFFFF"/>
      <rect x="18" y="27" width="18" height="3"  fill="#FFFFFF"/>
    </g>

    <text x="90" y="88" font-size="11" fill="#1A1A1A" text-anchor="middle" font-weight="700">CSDN BLOG</text>
    <text x="90" y="102" font-size="9" fill="#888" text-anchor="middle">@泛滥先生</text>
  </g>

  <g transform="translate(440, 70)" font-family="'Courier New', monospace">
    <rect x="4" y="4" width="180" height="110" fill="#1A1A1A"/>
    <rect x="0" y="0" width="180" height="110" fill="#FFFFFF" stroke="#1A1A1A" stroke-width="2"/>

    <g transform="translate(58, 22)">
      <rect x="18" y="0"  width="3"  height="9" fill="#00A1D6"/>
      <rect x="42" y="0"  width="3"  height="9" fill="#00A1D6"/>
      <rect x="15" y="3"  width="3"  height="6" fill="#00A1D6"/>
      <rect x="45" y="3"  width="3"  height="6" fill="#00A1D6"/>
      <rect x="12" y="6"  width="3"  height="3" fill="#00A1D6"/>
      <rect x="48" y="6"  width="3"  height="3" fill="#00A1D6"/>

      <rect x="3"  y="9"  width="57" height="6"  fill="#00A1D6"/>
      <rect x="0"  y="15" width="63" height="27" fill="#00A1D6"/>
      <rect x="3"  y="42" width="57" height="6"  fill="#00A1D6"/>

      <rect x="12" y="21" width="9"  height="9"  fill="#FFFFFF"/>
      <rect x="42" y="21" width="9"  height="9"  fill="#FFFFFF"/>
      <rect x="15" y="24" width="3"  height="3"  fill="#1A1A1A">
        <animate attributeName="opacity" values="1;1;1;0;1" dur="3s" repeatCount="indefinite"/>
      </rect>
      <rect x="45" y="24" width="3"  height="3"  fill="#1A1A1A">
        <animate attributeName="opacity" values="1;1;1;0;1" dur="3s" repeatCount="indefinite"/>
      </rect>

      <rect x="27" y="33" width="9"  height="3"  fill="#FF6B35"/>

      <rect x="9"  y="45" width="6"  height="6"  fill="#00A1D6"/>
      <rect x="48" y="45" width="6"  height="6"  fill="#00A1D6"/>
    </g>

    <text x="90" y="88" font-size="11" fill="#1A1A1A" text-anchor="middle" font-weight="700">BILIBILI</text>
    <text x="90" y="102" font-size="9" fill="#888" text-anchor="middle">UP 主 · 496045533</text>
  </g>

  <g transform="translate(640, 70)" font-family="'Courier New', monospace">
    <rect x="4" y="4" width="180" height="110" fill="#1A1A1A"/>
    <rect x="0" y="0" width="180" height="110" fill="#FFFFFF" stroke="#1A1A1A" stroke-width="2"/>

    <g transform="translate(60, 22)">
      <rect x="0"  y="6"  width="24" height="3"  fill="#07C160"/>
      <rect x="0"  y="9"  width="3"  height="21" fill="#07C160"/>
      <rect x="21" y="9"  width="3"  height="21" fill="#07C160"/>
      <rect x="0"  y="30" width="9"  height="3"  fill="#07C160"/>
      <rect x="15" y="30" width="9"  height="3"  fill="#07C160"/>
      <rect x="9"  y="33" width="6"  height="3"  fill="#07C160"/>
      <rect x="6"  y="15" width="3"  height="3"  fill="#FFFFFF"/>
      <rect x="15" y="15" width="3"  height="3"  fill="#FFFFFF"/>

      <rect x="24" y="18" width="24" height="3"  fill="#07C160"/>
      <rect x="24" y="21" width="3"  height="15" fill="#07C160"/>
      <rect x="45" y="21" width="3"  height="15" fill="#07C160"/>
      <rect x="24" y="36" width="6"  height="3"  fill="#07C160"/>
      <rect x="39" y="36" width="9"  height="3"  fill="#07C160"/>
      <rect x="30" y="39" width="6"  height="3"  fill="#07C160"/>
      <rect x="30" y="24" width="3"  height="3"  fill="#FFFFFF"/>
      <rect x="39" y="24" width="3"  height="3"  fill="#FFFFFF"/>
    </g>

    <text x="90" y="88" font-size="11" fill="#1A1A1A" text-anchor="middle" font-weight="700">WECHAT</text>
    <text x="90" y="102" font-size="9" fill="#888" text-anchor="middle">欢迎交流 · 微信</text>
  </g>

  <g transform="translate(0, 190)">
    <text x="450" y="12" font-family="'Courier New', monospace" font-size="10" fill="#AAAAAA" text-anchor="middle" letter-spacing="2">&gt; tap any card above to connect_<tspan dx="4">
      <animate attributeName="opacity" values="1;1;0;0;1" dur="1s" repeatCount="indefinite"/>█</tspan></text>
  </g>

</svg>
